ffmpeg started on 2025-06-05 at 21:03:36
Report written to "D:\Convert\FFMetrics\reports\psnr_report-6.txt"
Log level: 32
Command line:
ffmpeg -hide_banner -nostdin -i "G:\\\xc0\xed\xe8\xec\xe5\\\xce\xed\xe3\xee\xe8\xed\xe3\xe8\\!_36_\xce\xf1\xe5\xed\xfc_2024\\DreamCast\\\xcd\xe5\xe7\xed\xe0\xea\xee\xec\xf6\xfb \xe2 \xe4\xf0\xf3\xe3\xee\xe9 \xe6\xe8\xe7\xed\xe8\\[DC] Raise wa Tanin ga Ii - 12_Telegram_HEVC.mkv" -i "G:\\\xc0\xed\xe8\xec\xe5\\\xce\xed\xe3\xee\xe8\xed\xe3\xe8\\!_36_\xce\xf1\xe5\xed\xfc_2024\\DreamCast\\\xcd\xe5\xe7\xed\xe0\xea\xee\xec\xf6\xfb \xe2 \xe4\xf0\xf3\xe3\xee\xe9 \xe6\xe8\xe7\xed\xe8\\[DC] Raise wa Tanin ga Ii - 12_Telegram.mp4" -lavfi "[0:v]settb=AVTB,setpts=PTS-STARTPTS,format=pix_fmts=yuv420p10,fps=24000/1001,scale=1920:1080:flags=bicubic[main];[1:v]settb=AVTB,setpts=PTS-STARTPTS,format=pix_fmts=yuv420p,fps=24000/1001,scale=1920:1080:flags=bicubic[ref];[main][ref]psnr=eof_action=endall:stats_file='D\\:/Convert/FFMetrics/logs/psnr_logfile-6.txt'" -f null -
Input #0, matroska,webm, from 'G:\Аниме\Онгоинги\!_36_Осень_2024\DreamCast\Незнакомцы в другой жизни\[DC] Raise wa Tanin ga Ii - 12_Telegram_HEVC.mkv':
  Metadata:
    COMPATIBLE_BRANDS: isomiso2avc1mp41
    MAJOR_BRAND     : isom
    MINOR_VERSION   : 512
    ENCODER         : Lavf61.7.100
  Duration: 00:23:46.73, start: -0.021000, bitrate: 868 kb/s
  Chapters:
    Chapter #0:0: start 0.000000, end 39.000000
      Metadata:
        title           : 
    Chapter #0:1: start 39.000000, end 129.000000
      Metadata:
        title           : 
    Chapter #0:2: start 129.000000, end 1226.000000
      Metadata:
        title           : 
    Chapter #0:3: start 1226.000000, end 1316.000000
      Metadata:
        title           : 
    Chapter #0:4: start 1316.000000, end 1426.676000
      Metadata:
        title           : 
  Stream #0:0: Video: hevc (Main 10), yuv420p10le(tv, bt709, progressive), 1920x1080 [SAR 1:1 DAR 16:9], 23.98 fps, 23.98 tbr, 1k tbn (default)
      Metadata:
        HANDLER_NAME    : VideoHandler
        VENDOR_ID       : [0][0][0][0]
        ENCODER         : Lavc61.19.100 libx265
        BPS             : 671059
        DURATION        : 00:23:46.591708333
        NUMBER_OF_FRAMES: 34204
        NUMBER_OF_BYTES : 119665869
        _STATISTICS_WRITING_APP: mkvpropedit v66.0.0 ('Josie') 64-bit
        _STATISTICS_WRITING_DATE_UTC: 2025-05-31 16:43:58
        _STATISTICS_TAGS: BPS DURATION NUMBER_OF_FRAMES NUMBER_OF_BYTES
  Stream #0:1: Audio: aac (LC), 48000 Hz, stereo, fltp (default)
      Metadata:
        HANDLER_NAME    : SoundHandler
        VENDOR_ID       : [0][0][0][0]
        ENCODER         : Lavc61.19.100 aac
        BPS             : 193461
        DURATION        : 00:23:46.730000000
        NUMBER_OF_FRAMES: 66879
        NUMBER_OF_BYTES : 34502142
        _STATISTICS_WRITING_APP: mkvpropedit v66.0.0 ('Josie') 64-bit
        _STATISTICS_WRITING_DATE_UTC: 2025-05-31 16:43:58
        _STATISTICS_TAGS: BPS DURATION NUMBER_OF_FRAMES NUMBER_OF_BYTES
[mov,mp4,m4a,3gp,3g2,mj2 @ 000001c015f94440] Referenced QT chapter track not found
Input #1, mov,mp4,m4a,3gp,3g2,mj2, from 'G:\Аниме\Онгоинги\!_36_Осень_2024\DreamCast\Незнакомцы в другой жизни\[DC] Raise wa Tanin ga Ii - 12_Telegram.mp4':
  Metadata:
    major_brand     : isom
    minor_version   : 512
    compatible_brands: isomiso2avc1mp41
    encoder         : Lavf61.7.100
  Duration: 00:23:46.68, start: 0.000000, bitrate: 3810 kb/s
  Chapters:
    Chapter #1:0: start 0.000000, end 39.000000
      Metadata:
        title           : 
    Chapter #1:1: start 39.000000, end 129.000000
      Metadata:
        title           : 
    Chapter #1:2: start 129.000000, end 1226.000000
      Metadata:
        title           : 
    Chapter #1:3: start 1226.000000, end 1316.000000
      Metadata:
        title           : 
    Chapter #1:4: start 1316.000000, end 1426.676000
      Metadata:
        title           : 
  Stream #1:0[0x1](und): Video: h264 (High) (avc1 / 0x31637661), yuv420p(tv, bt709, progressive), 1920x1080 [SAR 1:1 DAR 16:9], 3662 kb/s, 23.98 fps, 23.98 tbr, 24k tbn (default)
      Metadata:
        handler_name    : VideoHandler
        vendor_id       : [0][0][0][0]
        encoder         : Lavc61.19.101 h264_qsv
  Stream #1:1[0x2](und): Audio: aac (HE-AACv2) (mp4a / 0x6134706D), 48000 Hz, stereo, fltp, 144 kb/s (default)
      Metadata:
        handler_name    : SoundHandler
        vendor_id       : [0][0][0][0]
Stream mapping:
  Stream #0:0 (hevc) -> settb:default
  Stream #1:0 (h264) -> settb:default
  psnr:default -> Stream #0:0 (wrapped_avframe)
  Stream #0:1 -> #0:1 (aac (native) -> pcm_s16le (native))
Output #0, null, to 'pipe:':
  Metadata:
    COMPATIBLE_BRANDS: isomiso2avc1mp41
    MAJOR_BRAND     : isom
    MINOR_VERSION   : 512
    encoder         : Lavf61.7.100
  Chapters:
    Chapter #0:0: start 0.021000, end 39.021000
      Metadata:
        title           : 
    Chapter #0:1: start 39.021000, end 129.021000
      Metadata:
        title           : 
    Chapter #0:2: start 129.021000, end 1226.021000
      Metadata:
        title           : 
    Chapter #0:3: start 1226.021000, end 1316.021000
      Metadata:
        title           : 
    Chapter #0:4: start 1316.021000, end 1426.697000
      Metadata:
        title           : 
  Stream #0:0: Video: wrapped_avframe, yuv420p10le(tv, bt709, progressive), 1920x1080 [SAR 1:1 DAR 16:9], q=2-31, 200 kb/s, 23.98 fps, 23.98 tbn
      Metadata:
        encoder         : Lavc61.19.100 wrapped_avframe
  Stream #0:1: Audio: pcm_s16le, 48000 Hz, stereo, s16, 1536 kb/s (default)
      Metadata:
        HANDLER_NAME    : SoundHandler
        VENDOR_ID       : [0][0][0][0]
        _STATISTICS_TAGS: BPS DURATION NUMBER_OF_FRAMES NUMBER_OF_BYTES
        BPS             : 193461
        DURATION        : 00:23:46.730000000
        NUMBER_OF_FRAMES: 66879
        NUMBER_OF_BYTES : 34502142
        _STATISTICS_WRITING_APP: mkvpropedit v66.0.0 ('Josie') 64-bit
        _STATISTICS_WRITING_DATE_UTC: 2025-05-31 16:43:58
        encoder         : Lavc61.19.100 pcm_s16le
frame=  177 fps=0.0 q=-0.0 size=N/A time=00:00:07.38 bitrate=N/A speed=14.2x    frame=  433 fps=417 q=-0.0 size=N/A time=00:00:18.05 bitrate=N/A speed=17.4x    frame=  725 fps=462 q=-0.0 size=N/A time=00:00:30.23 bitrate=N/A speed=19.3x    frame=  978 fps=471 q=-0.0 size=N/A time=00:00:40.79 bitrate=N/A speed=19.7x    frame= 1219 fps=469 q=-0.0 size=N/A time=00:00:50.84 bitrate=N/A speed=19.5x    frame= 1441 fps=464 q=-0.0 size=N/A time=00:01:00.10 bitrate=N/A speed=19.3x    frame= 1694 fps=467 q=-0.0 size=N/A time=00:01:10.65 bitrate=N/A speed=19.5x    frame= 1916 fps=463 q=-0.0 size=N/A time=00:01:19.91 bitrate=N/A speed=19.3x    frame= 2177 fps=467 q=-0.0 size=N/A time=00:01:30.79 bitrate=N/A speed=19.5x    frame= 2389 fps=462 q=-0.0 size=N/A time=00:01:39.64 bitrate=N/A speed=19.3x    frame= 2625 fps=461 q=-0.0 size=N/A time=00:01:49.48 bitrate=N/A speed=19.2x    frame= 2861 fps=462 q=-0.0 size=N/A time=00:01:59.32 bitrate=N/A speed=19.3x    frame= 3104 fps=463 q=-0.0 size=N/A time=00:02:09.46 bitrate=N/A speed=19.3x    frame= 3362 fps=465 q=-0.0 size=N/A time=00:02:20.22 bitrate=N/A speed=19.4x    frame= 3626 fps=467 q=-0.0 size=N/A time=00:02:31.23 bitrate=N/A speed=19.5x    frame= 3898 fps=471 q=-0.0 size=N/A time=00:02:42.57 bitrate=N/A speed=19.6x    frame= 4152 fps=472 q=-0.0 size=N/A time=00:02:53.17 bitrate=N/A speed=19.7x    frame= 4393 fps=472 q=-0.0 size=N/A time=00:03:03.22 bitrate=N/A speed=19.7x    frame= 4641 fps=472 q=-0.0 size=N/A time=00:03:13.56 bitrate=N/A speed=19.7x    frame= 4921 fps=475 q=-0.0 size=N/A time=00:03:25.24 bitrate=N/A speed=19.8x    frame= 5169 fps=476 q=-0.0 size=N/A time=00:03:35.59 bitrate=N/A speed=19.9x    frame= 5414 fps=476 q=-0.0 size=N/A time=00:03:45.80 bitrate=N/A speed=19.8x    frame= 5694 fps=479 q=-0.0 size=N/A time=00:03:57.48 bitrate=N/A speed=  20x    frame= 5980 fps=482 q=-0.0 size=N/A time=00:04:09.41 bitrate=N/A speed=20.1x    frame= 6269 fps=485 q=-0.0 size=N/A time=00:04:21.46 bitrate=N/A speed=20.2x    frame= 6558 fps=487 q=-0.0 size=N/A time=00:04:33.52 bitrate=N/A speed=20.3x    frame= 6790 fps=486 q=-0.0 size=N/A time=00:04:43.19 bitrate=N/A speed=20.3x    frame= 7053 fps=487 q=-0.0 size=N/A time=00:04:54.16 bitrate=N/A speed=20.3x    frame= 7295 fps=486 q=-0.0 size=N/A time=00:05:04.26 bitrate=N/A speed=20.3x    frame= 7594 fps=489 q=-0.0 size=N/A time=00:05:16.73 bitrate=N/A speed=20.4x    frame= 7863 fps=491 q=-0.0 size=N/A time=00:05:27.95 bitrate=N/A speed=20.5x    frame= 8136 fps=492 q=-0.0 size=N/A time=00:05:39.33 bitrate=N/A speed=20.5x    frame= 8364 fps=490 q=-0.0 size=N/A time=00:05:48.84 bitrate=N/A speed=20.5x    frame= 8642 fps=492 q=-0.0 size=N/A time=00:06:00.44 bitrate=N/A speed=20.5x    frame= 8906 fps=492 q=-0.0 size=N/A time=00:06:11.45 bitrate=N/A speed=20.5x    frame= 9184 fps=494 q=-0.0 size=N/A time=00:06:23.04 bitrate=N/A speed=20.6x    frame= 9457 fps=495 q=-0.0 size=N/A time=00:06:34.43 bitrate=N/A speed=20.6x    frame= 9718 fps=495 q=-0.0 size=N/A time=00:06:45.32 bitrate=N/A speed=20.6x    frame= 9979 fps=495 q=-0.0 size=N/A time=00:06:56.20 bitrate=N/A speed=20.6x    frame=10186 fps=493 q=-0.0 size=N/A time=00:07:04.84 bitrate=N/A speed=20.6x    frame=10408 fps=491 q=-0.0 size=N/A time=00:07:14.10 bitrate=N/A speed=20.5x    frame=10630 fps=490 q=-0.0 size=N/A time=00:07:23.35 bitrate=N/A speed=20.4x    frame=10858 fps=489 q=-0.0 size=N/A time=00:07:32.86 bitrate=N/A speed=20.4x    frame=11109 fps=489 q=-0.0 size=N/A time=00:07:43.33 bitrate=N/A speed=20.4x    frame=11343 fps=488 q=-0.0 size=N/A time=00:07:53.09 bitrate=N/A speed=20.4x    frame=11588 fps=487 q=-0.0 size=N/A time=00:08:03.31 bitrate=N/A speed=20.3x    frame=11832 fps=487 q=-0.0 size=N/A time=00:08:13.49 bitrate=N/A speed=20.3x    frame=12100 fps=488 q=-0.0 size=N/A time=00:08:24.67 bitrate=N/A speed=20.4x    frame=12352 fps=488 q=-0.0 size=N/A time=00:08:35.18 bitrate=N/A speed=20.4x    frame=12600 fps=488 q=-0.0 size=N/A time=00:08:45.52 bitrate=N/A speed=20.4x    frame=12850 fps=488 q=-0.0 size=N/A time=00:08:55.95 bitrate=N/A speed=20.3x    frame=13103 fps=488 q=-0.0 size=N/A time=00:09:06.50 bitrate=N/A speed=20.4x    frame=13361 fps=488 q=-0.0 size=N/A time=00:09:17.26 bitrate=N/A speed=20.4x    frame=13618 fps=488 q=-0.0 size=N/A time=00:09:27.98 bitrate=N/A speed=20.4x    frame=13877 fps=489 q=-0.0 size=N/A time=00:09:38.78 bitrate=N/A speed=20.4x    frame=14123 fps=488 q=-0.0 size=N/A time=00:09:49.04 bitrate=N/A speed=20.4x    frame=14397 fps=489 q=-0.0 size=N/A time=00:10:00.47 bitrate=N/A speed=20.4x    frame=14655 fps=489 q=-0.0 size=N/A time=00:10:11.27 bitrate=N/A speed=20.4x    frame=14928 fps=490 q=-0.0 size=N/A time=00:10:22.62 bitrate=N/A speed=20.4x    frame=15168 fps=490 q=-0.0 size=N/A time=00:10:32.63 bitrate=N/A speed=20.4x    frame=15420 fps=489 q=-0.0 size=N/A time=00:10:43.14 bitrate=N/A speed=20.4x    frame=15677 fps=490 q=-0.0 size=N/A time=00:10:53.86 bitrate=N/A speed=20.4x    frame=15941 fps=490 q=-0.0 size=N/A time=00:11:04.87 bitrate=N/A speed=20.4x    frame=16192 fps=490 q=-0.0 size=N/A time=00:11:15.34 bitrate=N/A speed=20.4x    frame=16445 fps=490 q=-0.0 size=N/A time=00:11:25.89 bitrate=N/A speed=20.4x    frame=16673 fps=489 q=-0.0 size=N/A time=00:11:35.40 bitrate=N/A speed=20.4x    frame=16945 fps=490 q=-0.0 size=N/A time=00:11:46.74 bitrate=N/A speed=20.4x    frame=17215 fps=490 q=-0.0 size=N/A time=00:11:58.00 bitrate=N/A speed=20.5x    frame=17463 fps=490 q=-0.0 size=N/A time=00:12:08.35 bitrate=N/A speed=20.4x    frame=17721 fps=490 q=-0.0 size=N/A time=00:12:19.11 bitrate=N/A speed=20.4x    frame=17964 fps=490 q=-0.0 size=N/A time=00:12:29.24 bitrate=N/A speed=20.4x    frame=18215 fps=490 q=-0.0 size=N/A time=00:12:39.71 bitrate=N/A speed=20.4x    frame=18463 fps=490 q=-0.0 size=N/A time=00:12:50.06 bitrate=N/A speed=20.4x    frame=18740 fps=491 q=-0.0 size=N/A time=00:13:01.61 bitrate=N/A speed=20.5x    frame=19013 fps=491 q=-0.0 size=N/A time=00:13:13.00 bitrate=N/A speed=20.5x    frame=19296 fps=492 q=-0.0 size=N/A time=00:13:24.80 bitrate=N/A speed=20.5x    frame=19547 fps=492 q=-0.0 size=N/A time=00:13:35.27 bitrate=N/A speed=20.5x    frame=19798 fps=492 q=-0.0 size=N/A time=00:13:45.74 bitrate=N/A speed=20.5x    frame=20043 fps=491 q=-0.0 size=N/A time=00:13:55.96 bitrate=N/A speed=20.5x    frame=20291 fps=491 q=-0.0 size=N/A time=00:14:06.30 bitrate=N/A speed=20.5x    frame=20558 fps=492 q=-0.0 size=N/A time=00:14:17.43 bitrate=N/A speed=20.5x    frame=20810 fps=491 q=-0.0 size=N/A time=00:14:27.95 bitrate=N/A speed=20.5x    frame=21064 fps=491 q=-0.0 size=N/A time=00:14:38.54 bitrate=N/A speed=20.5x    frame=21324 fps=492 q=-0.0 size=N/A time=00:14:49.38 bitrate=N/A speed=20.5x    frame=21601 fps=492 q=-0.0 size=N/A time=00:15:00.94 bitrate=N/A speed=20.5x    frame=21851 fps=492 q=-0.0 size=N/A time=00:15:11.36 bitrate=N/A speed=20.5x    frame=22107 fps=492 q=-0.0 size=N/A time=00:15:22.04 bitrate=N/A speed=20.5x    frame=22350 fps=492 q=-0.0 size=N/A time=00:15:32.18 bitrate=N/A speed=20.5x    frame=22567 fps=491 q=-0.0 size=N/A time=00:15:41.23 bitrate=N/A speed=20.5x    frame=22838 fps=491 q=-0.0 size=N/A time=00:15:52.53 bitrate=N/A speed=20.5x    frame=23110 fps=492 q=-0.0 size=N/A time=00:16:03.87 bitrate=N/A speed=20.5x    frame=23336 fps=491 q=-0.0 size=N/A time=00:16:13.30 bitrate=N/A speed=20.5x    frame=23572 fps=491 q=-0.0 size=N/A time=00:16:23.14 bitrate=N/A speed=20.5x    frame=23851 fps=491 q=-0.0 size=N/A time=00:16:34.78 bitrate=N/A speed=20.5x    frame=24117 fps=492 q=-0.0 size=N/A time=00:16:45.87 bitrate=N/A speed=20.5x    frame=24395 fps=492 q=-0.0 size=N/A time=00:16:57.47 bitrate=N/A speed=20.5x    frame=24659 fps=492 q=-0.0 size=N/A time=00:17:08.48 bitrate=N/A speed=20.5x    frame=24911 fps=492 q=-0.0 size=N/A time=00:17:18.99 bitrate=N/A speed=20.5x    frame=25156 fps=492 q=-0.0 size=N/A time=00:17:29.21 bitrate=N/A speed=20.5x    frame=25391 fps=492 q=-0.0 size=N/A time=00:17:39.01 bitrate=N/A speed=20.5x    frame=25651 fps=492 q=-0.0 size=N/A time=00:17:49.86 bitrate=N/A speed=20.5x    frame=25883 fps=492 q=-0.0 size=N/A time=00:17:59.53 bitrate=N/A speed=20.5x    frame=26136 fps=491 q=-0.0 size=N/A time=00:18:10.08 bitrate=N/A speed=20.5x    frame=26366 fps=491 q=-0.0 size=N/A time=00:18:19.68 bitrate=N/A speed=20.5x    frame=26630 fps=491 q=-0.0 size=N/A time=00:18:30.69 bitrate=N/A speed=20.5x    frame=26897 fps=492 q=-0.0 size=N/A time=00:18:41.82 bitrate=N/A speed=20.5x    frame=27164 fps=492 q=-0.0 size=N/A time=00:18:52.96 bitrate=N/A speed=20.5x    frame=27429 fps=492 q=-0.0 size=N/A time=00:19:04.01 bitrate=N/A speed=20.5x    frame=27694 fps=492 q=-0.0 size=N/A time=00:19:15.07 bitrate=N/A speed=20.5x    frame=27945 fps=492 q=-0.0 size=N/A time=00:19:25.53 bitrate=N/A speed=20.5x    frame=28185 fps=492 q=-0.0 size=N/A time=00:19:35.54 bitrate=N/A speed=20.5x    frame=28426 fps=492 q=-0.0 size=N/A time=00:19:45.60 bitrate=N/A speed=20.5x    frame=28679 fps=492 q=-0.0 size=N/A time=00:19:56.15 bitrate=N/A speed=20.5x    frame=28940 fps=492 q=-0.0 size=N/A time=00:20:07.03 bitrate=N/A speed=20.5x    frame=29222 fps=492 q=-0.0 size=N/A time=00:20:18.80 bitrate=N/A speed=20.5x    frame=29465 fps=492 q=-0.0 size=N/A time=00:20:28.93 bitrate=N/A speed=20.5x    frame=29697 fps=492 q=-0.0 size=N/A time=00:20:38.61 bitrate=N/A speed=20.5x    frame=29941 fps=492 q=-0.0 size=N/A time=00:20:48.78 bitrate=N/A speed=20.5x    frame=30153 fps=491 q=-0.0 size=N/A time=00:20:57.63 bitrate=N/A speed=20.5x    frame=30360 fps=490 q=-0.0 size=N/A time=00:21:06.26 bitrate=N/A speed=20.4x    frame=30557 fps=489 q=-0.0 size=N/A time=00:21:14.48 bitrate=N/A speed=20.4x    frame=30752 fps=488 q=-0.0 size=N/A time=00:21:22.61 bitrate=N/A speed=20.4x    frame=30916 fps=487 q=-0.0 size=N/A time=00:21:29.45 bitrate=N/A speed=20.3x    frame=31116 fps=486 q=-0.0 size=N/A time=00:21:37.79 bitrate=N/A speed=20.3x    frame=31281 fps=485 q=-0.0 size=N/A time=00:21:44.67 bitrate=N/A speed=20.2x    frame=31489 fps=484 q=-0.0 size=N/A time=00:21:53.35 bitrate=N/A speed=20.2x    frame=31757 fps=484 q=-0.0 size=N/A time=00:22:04.53 bitrate=N/A speed=20.2x    frame=32005 fps=484 q=-0.0 size=N/A time=00:22:14.87 bitrate=N/A speed=20.2x    frame=32263 fps=484 q=-0.0 size=N/A time=00:22:25.63 bitrate=N/A speed=20.2x    frame=32490 fps=484 q=-0.0 size=N/A time=00:22:35.10 bitrate=N/A speed=20.2x    frame=32724 fps=484 q=-0.0 size=N/A time=00:22:44.86 bitrate=N/A speed=20.2x    frame=32981 fps=484 q=-0.0 size=N/A time=00:22:55.58 bitrate=N/A speed=20.2x    frame=33234 fps=484 q=-0.0 size=N/A time=00:23:06.13 bitrate=N/A speed=20.2x    frame=33475 fps=484 q=-0.0 size=N/A time=00:23:16.18 bitrate=N/A speed=20.2x    frame=33709 fps=484 q=-0.0 size=N/A time=00:23:25.94 bitrate=N/A speed=20.2x    frame=33978 fps=484 q=-0.0 size=N/A time=00:23:37.16 bitrate=N/A speed=20.2x    [Parsed_psnr_10 @ 000001c023129800] PSNR y:49.017116 u:50.708076 v:50.370237 average:49.466825 min:37.892368 max:inf
[out#0/null @ 000001c015f94ec0] video:14697KiB audio:267516KiB subtitle:0KiB other streams:0KiB global headers:0KiB muxing overhead: unknown
frame=34204 fps=484 q=-0.0 Lsize=N/A time=00:23:46.59 bitrate=N/A speed=20.2x    
